# xmcd CD database file
#
# Track frame offsets:
#	150
#	13548
#	25658
#	38899
#	50474
#	63174
#	76200
#	89038
#	100018
#	112721
#	126834
#	140789
#	151084
#	161549
#	174349
#
# Disc length: 2523 seconds
#
# Revision: 1
# Processed by: cddbd v1.5.2PL0 Copyright (c) Steve Scherf et al.
# Submitted via: CDex 1.92
#
DISCID=af09d90f
DTITLE=Elmore James - Big Box
DYEAR=2012
DGENRE=Blues
TTITLE0=Dust My Broom
TTITLE1=I Can't Stop Lovin' You
TTITLE2=Baby What's Wrong?
TTITLE3=You Don't Have To Go
TTITLE4=Got To Move
TTITLE5=I May Be Wrong
TTITLE6=Shake Your Moneymaker
TTITLE7=Sunnyland Train
TTITLE8=Dark And Dreary
TTITLE9=Find My Kind Of Woman
TTITLE10=Hand in Hand (Take 4)
TTITLE11=The Way You Treat Me
TTITLE12=Can't Stop Loving My Baby
TTITLE13=Up Jumped Elmore (Black Snake Slide)
TTITLE14=Wild About You
EXTD=YEAR: 2012
EXTT0=
EXTT1=
EXTT2=
EXTT3=
EXTT4=
EXTT5=
EXTT6=
EXTT7=
EXTT8=
EXTT9=
EXTT10=
EXTT11=
EXTT12=
EXTT13=
EXTT14=
PLAYORDER=
